<svg id="visual" viewBox="0 0 960 450" width="960" height="450" xmlns="http://www.w3.org/2000/svg"
  xmlns:xlink="http://www.w3.org/1999/xlink" version="1.1">
  <rect x="0" y="0" width="960" height="350" fill="#001220"></rect>
  <path
    d="M0 173L20 161.7C40 150.3 80 127.7 120 115.8C160 104 200 103 240 102.7C280 102.3 320 102.7 360 104.8C400 107 440 111 480 112C520 113 560 111 600 109C640 107 680 105 720 109.3C760 113.7 800 124.3 840 131.3C880 138.3 920 141.7 940 143.3L960 145L960 0L940 0C920 0 880 0 840 0C800 0 760 0 720 0C680 0 640 0 600 0C560 0 520 0 480 0C440 0 400 0 360 0C320 0 280 0 240 0C200 0 160 0 120 0C80 0 40 0 20 0L0 0Z"
    fill="#8ddddd"></path>
  <circle r="4" fill="#54a9c1">
    <animateMotion dur="7s" repeatCount="indefinite"
      path="M0 173L20 161.7C40 150.3 80 127.7 120 115.8C160 104 200 103 240 102.7C280 102.3 320 102.7 360 104.8C400 107 440 111 480 112C520 113 560 111 600 109C640 107 680 105 720 109.3C760 113.7 800 124.3 840 131.3C880 138.3 920 141.7 940 143.3L960 145">
    </animateMotion>
  </circle>
  <path
    d="M0 140L20 128.8C40 117.7 80 95.3 120 91.7C160 88 200 103 240 113.3C280 123.7 320 129.3 360 129.3C400 129.3 440 123.7 480 119C520 114.3 560 110.7 600 104.7C640 98.7 680 90.3 720 95.3C760 100.3 800 118.7 840 123.8C880 129 920 121 940 117L960 113L960 0L940 0C920 0 880 0 840 0C800 0 760 0 720 0C680 0 640 0 600 0C560 0 520 0 480 0C440 0 400 0 360 0C320 0 280 0 240 0C200 0 160 0 120 0C80 0 40 0 20 0L0 0Z"
    fill="#54a9c1"></path>
  <circle r="4" fill="#34759f">
    <animateMotion dur="5s" repeatCount="indefinite"
      path="M0 140L20 128.8C40 117.7 80 95.3 120 91.7C160 88 200 103 240 113.3C280 123.7 320 129.3 360 129.3C400 129.3 440 123.7 480 119C520 114.3 560 110.7 600 104.7C640 98.7 680 90.3 720 95.3C760 100.3 800 118.7 840 123.8C880 129 920 121 940 117L960 113">
    </animateMotion>
  </circle>
  <path
    d="M0 99L20 92.7C40 86.3 80 73.7 120 70.5C160 67.3 200 73.7 240 71.3C280 69 320 58 360 59.5C400 61 440 75 480 76.8C520 78.7 560 68.3 600 64.2C640 60 680 62 720 69.3C760 76.7 800 89.3 840 90.7C880 92 920 82 940 77L960 72L960 0L940 0C920 0 880 0 840 0C800 0 760 0 720 0C680 0 640 0 600 0C560 0 520 0 480 0C440 0 400 0 360 0C320 0 280 0 240 0C200 0 160 0 120 0C80 0 40 0 20 0L0 0Z"
    fill="#34759f"></path>
  <circle r="4" fill="#8ddddd">
    <animateMotion dur="6s" repeatCount="indefinite"
      path="M0 99L20 92.7C40 86.3 80 73.7 120 70.5C160 67.3 200 73.7 240 71.3C280 69 320 58 360 59.5C400 61 440 75 480 76.8C520 78.7 560 68.3 600 64.2C640 60 680 62 720 69.3C760 76.7 800 89.3 840 90.7C880 92 920 82 940 77L960 72">
    </animateMotion>
  </circle>
  <path
    d="M0 48L20 49.3C40 50.7 80 53.3 120 49.5C160 45.7 200 35.3 240 34.7C280 34 320 43 360 45.2C400 47.3 440 42.7 480 40.2C520 37.7 560 37.3 600 36C640 34.7 680 32.3 720 30.2C760 28 800 26 840 29.3C880 32.7 920 41.3 940 45.7L960 50L960 0L940 0C920 0 880 0 840 0C800 0 760 0 720 0C680 0 640 0 600 0C560 0 520 0 480 0C440 0 400 0 360 0C320 0 280 0 240 0C200 0 160 0 120 0C80 0 40 0 20 0L0 0Z"
    fill="#2e4373"></path>
  <circle r="4" fill="#54a9c1">
    <animateMotion dur="8s" repeatCount="indefinite"
      path="M0 48L20 49.3C40 50.7 80 53.3 120 49.5C160 45.7 200 35.3 240 34.7C280 34 320 43 360 45.2C400 47.3 440 42.7 480 40.2C520 37.7 560 37.3 600 36C640 34.7 680 32.3 720 30.2C760 28 800 26 840 29.3C880 32.7 920 41.3 940 45.7L960 50">
    </animateMotion>
  </circle>
</svg>